<svg xmlns="http://www.w3.org/2000/svg" xmlns:xlink="http://www.w3.org/1999/xlink" width="120" zoomAndPan="magnify" viewBox="0 0 90 60" height="80" preserveAspectRatio="xMidYMid meet" version="1.0"><defs><g/></defs><g fill="#5ce1e6" fill-opacity="0.302"><g transform="translate(2.16774, 27.395511)"><g><path d="M 12.980469 -4.75 C 12.496094 -4.3125 12.011719 -4.003906 11.503906 -3.804688 C 11 -3.585938 10.40625 -3.496094 9.722656 -3.496094 C 8.996094 -3.496094 8.359375 -3.609375 7.832031 -3.828125 C 7.28125 -4.046875 6.820312 -4.332031 6.46875 -4.730469 C 6.09375 -5.125 5.808594 -5.566406 5.632812 -6.09375 C 5.457031 -6.621094 5.367188 -7.191406 5.367188 -7.808594 C 5.367188 -8.402344 5.457031 -8.976562 5.632812 -9.503906 C 5.808594 -10.03125 6.09375 -10.472656 6.46875 -10.867188 C 6.820312 -11.261719 7.28125 -11.570312 7.832031 -11.789062 C 8.359375 -12.011719 8.996094 -12.121094 9.722656 -12.121094 C 10.25 -12.121094 10.777344 -12.03125 11.308594 -11.878906 C 11.835938 -11.703125 12.320312 -11.4375 12.714844 -11.085938 C 12.757812 -11.042969 12.800781 -11.019531 12.847656 -10.976562 L 12.980469 -10.84375 C 13.132812 -10.691406 13.308594 -10.558594 13.527344 -10.449219 C 13.726562 -10.339844 13.992188 -10.292969 14.320312 -10.292969 C 14.628906 -10.292969 14.890625 -10.339844 15.113281 -10.449219 C 15.332031 -10.558594 15.53125 -10.691406 15.707031 -10.867188 C 15.859375 -11.019531 15.96875 -11.195312 16.058594 -11.417969 C 16.144531 -11.636719 16.191406 -11.835938 16.191406 -12.03125 C 16.191406 -12.449219 16.035156 -12.847656 15.726562 -13.199219 C 15.375 -13.59375 14.957031 -13.945312 14.472656 -14.253906 C 13.992188 -14.5625 13.507812 -14.804688 12.980469 -15.003906 C 12.449219 -15.199219 11.902344 -15.355469 11.351562 -15.441406 C 10.777344 -15.53125 10.25 -15.597656 9.722656 -15.597656 C 8.578125 -15.597656 7.5 -15.398438 6.511719 -15.023438 C 5.519531 -14.648438 4.664062 -14.121094 3.960938 -13.441406 C 3.234375 -12.757812 2.660156 -11.945312 2.265625 -11 C 1.847656 -10.03125 1.648438 -8.976562 1.648438 -7.808594 C 1.648438 -6.621094 1.847656 -5.566406 2.265625 -4.597656 C 2.660156 -3.628906 3.234375 -2.816406 3.960938 -2.132812 C 4.664062 -1.453125 5.519531 -0.925781 6.511719 -0.550781 C 7.5 -0.175781 8.578125 0 9.722656 0 C 10.691406 0 11.613281 -0.132812 12.515625 -0.417969 C 13.417969 -0.703125 14.230469 -1.144531 14.957031 -1.714844 C 15.265625 -1.9375 15.53125 -2.199219 15.792969 -2.484375 C 16.058594 -2.773438 16.191406 -3.125 16.191406 -3.5625 C 16.191406 -3.761719 16.144531 -3.960938 16.058594 -4.179688 C 15.96875 -4.378906 15.859375 -4.554688 15.707031 -4.730469 C 15.53125 -4.882812 15.332031 -5.015625 15.113281 -5.125 C 14.890625 -5.234375 14.628906 -5.300781 14.320312 -5.300781 C 13.992188 -5.300781 13.726562 -5.234375 13.527344 -5.125 C 13.308594 -5.015625 13.132812 -4.882812 12.980469 -4.75 Z M 12.980469 -4.75 "/></g></g></g><g fill="#5ce1e6" fill-opacity="0.302"><g transform="translate(20.028556, 27.395511)"><g><path d="M 3.496094 0 L 9.722656 0 C 10.03125 0 10.292969 -0.0429688 10.535156 -0.152344 C 10.757812 -0.265625 10.953125 -0.394531 11.109375 -0.570312 C 11.261719 -0.746094 11.371094 -0.925781 11.460938 -1.144531 C 11.527344 -1.34375 11.570312 -1.539062 11.570312 -1.738281 C 11.570312 -1.9375 11.527344 -2.132812 11.4375 -2.355469 C 11.351562 -2.550781 11.242188 -2.726562 11.085938 -2.902344 C 10.910156 -3.058594 10.710938 -3.191406 10.492188 -3.300781 C 10.273438 -3.410156 10.007812 -3.476562 9.699219 -3.476562 L 5.609375 -3.476562 C 5.566406 -3.476562 5.5 -3.496094 5.433594 -3.542969 C 5.34375 -3.585938 5.324219 -3.671875 5.324219 -3.804688 L 5.324219 -6.09375 C 5.324219 -6.203125 5.34375 -6.292969 5.433594 -6.355469 C 5.5 -6.402344 5.566406 -6.445312 5.609375 -6.445312 L 8.558594 -6.445312 C 8.863281 -6.445312 9.128906 -6.488281 9.347656 -6.597656 C 9.570312 -6.710938 9.765625 -6.839844 9.921875 -7.015625 C 10.074219 -7.191406 10.183594 -7.371094 10.273438 -7.589844 C 10.359375 -7.789062 10.40625 -7.984375 10.40625 -8.183594 C 10.40625 -8.382812 10.359375 -8.578125 10.273438 -8.800781 C 10.183594 -8.996094 10.074219 -9.171875 9.921875 -9.347656 C 9.746094 -9.503906 9.546875 -9.636719 9.328125 -9.746094 C 9.105469 -9.855469 8.84375 -9.921875 8.535156 -9.921875 L 5.585938 -9.921875 C 5.542969 -9.921875 5.476562 -9.941406 5.410156 -9.988281 C 5.324219 -10.03125 5.300781 -10.117188 5.300781 -10.25 L 5.300781 -11.769531 C 5.300781 -11.878906 5.324219 -11.964844 5.410156 -12.03125 C 5.476562 -12.078125 5.542969 -12.121094 5.585938 -12.121094 L 9.679688 -12.121094 C 9.988281 -12.121094 10.25 -12.164062 10.492188 -12.273438 C 10.710938 -12.382812 10.910156 -12.515625 11.066406 -12.691406 C 11.21875 -12.847656 11.328125 -13.023438 11.417969 -13.242188 C 11.484375 -13.441406 11.527344 -13.636719 11.527344 -13.835938 C 11.527344 -14.035156 11.484375 -14.230469 11.394531 -14.453125 C 11.308594 -14.648438 11.195312 -14.828125 11.042969 -15.003906 C 10.867188 -15.15625 10.667969 -15.289062 10.449219 -15.398438 C 10.230469 -15.507812 9.964844 -15.574219 9.65625 -15.574219 L 3.429688 -15.574219 C 3.125 -15.574219 2.835938 -15.507812 2.617188 -15.398438 C 2.398438 -15.289062 2.199219 -15.15625 2.046875 -14.980469 C 1.871094 -14.804688 1.761719 -14.628906 1.671875 -14.429688 C 1.582031 -14.210938 1.5625 -14.011719 1.5625 -13.835938 L 1.5625 -1.714844 C 1.5625 -1.496094 1.605469 -1.277344 1.695312 -1.078125 C 1.78125 -0.859375 1.914062 -0.683594 2.089844 -0.527344 C 2.265625 -0.351562 2.464844 -0.21875 2.707031 -0.132812 C 2.949219 -0.0429688 3.210938 0 3.496094 0 Z M 3.496094 0 "/></g></g></g><g fill="#5ce1e6" fill-opacity="0.302"><g transform="translate(33.270194, 27.395511)"><g><path d="M 9.589844 -6.578125 C 10.425781 -7.039062 11.085938 -7.609375 11.546875 -8.269531 C 11.988281 -8.929688 12.230469 -9.789062 12.230469 -10.800781 C 12.230469 -11.394531 12.097656 -11.988281 11.878906 -12.5625 C 11.660156 -13.132812 11.328125 -13.660156 10.890625 -14.121094 C 10.449219 -14.5625 9.921875 -14.9375 9.28125 -15.199219 C 8.644531 -15.464844 7.917969 -15.617188 7.105469 -15.617188 L 3.519531 -15.617188 C 3.210938 -15.617188 2.925781 -15.550781 2.707031 -15.441406 C 2.484375 -15.332031 2.289062 -15.199219 2.132812 -15.023438 C 1.957031 -14.847656 1.847656 -14.671875 1.761719 -14.472656 C 1.671875 -14.253906 1.648438 -14.054688 1.648438 -13.859375 L 1.648438 -1.761719 C 1.648438 -1.5625 1.671875 -1.363281 1.761719 -1.164062 C 1.847656 -0.945312 1.957031 -0.769531 2.113281 -0.59375 C 2.265625 -0.417969 2.464844 -0.265625 2.683594 -0.152344 C 2.902344 -0.0429688 3.191406 0 3.496094 0 C 3.804688 0 4.070312 -0.0429688 4.3125 -0.152344 C 4.53125 -0.265625 4.730469 -0.394531 4.882812 -0.570312 C 5.039062 -0.746094 5.148438 -0.925781 5.234375 -1.144531 C 5.300781 -1.34375 5.34375 -1.539062 5.34375 -1.738281 L 5.34375 -5.761719 C 5.34375 -5.851562 5.367188 -5.917969 5.410156 -5.9375 C 5.457031 -5.960938 5.476562 -5.984375 5.5 -5.984375 C 5.585938 -5.984375 5.699219 -5.917969 5.785156 -5.808594 L 8.863281 -0.859375 C 9.019531 -0.59375 9.238281 -0.394531 9.503906 -0.242188 C 9.765625 -0.0664062 10.097656 0 10.472656 0 C 10.777344 0 11.042969 -0.0429688 11.261719 -0.152344 C 11.484375 -0.265625 11.679688 -0.394531 11.835938 -0.570312 C 11.988281 -0.726562 12.097656 -0.902344 12.1875 -1.121094 C 12.273438 -1.34375 12.320312 -1.539062 12.320312 -1.738281 C 12.320312 -2.046875 12.230469 -2.355469 12.054688 -2.617188 C 11.964844 -2.726562 11.789062 -2.992188 11.527344 -3.429688 C 11.261719 -3.847656 10.976562 -4.3125 10.667969 -4.816406 C 10.492188 -5.058594 10.339844 -5.300781 10.207031 -5.519531 C 10.074219 -5.742188 9.941406 -5.960938 9.832031 -6.136719 C 9.699219 -6.3125 9.636719 -6.46875 9.589844 -6.578125 Z M 5.324219 -9.832031 L 5.324219 -11.769531 C 5.324219 -11.878906 5.34375 -11.964844 5.433594 -12.03125 C 5.5 -12.078125 5.566406 -12.121094 5.609375 -12.121094 L 7.0625 -12.121094 C 7.5 -12.121094 7.851562 -11.988281 8.09375 -11.769531 C 8.335938 -11.546875 8.46875 -11.21875 8.46875 -10.800781 C 8.46875 -10.359375 8.335938 -10.03125 8.09375 -9.8125 C 7.851562 -9.589844 7.5 -9.480469 7.0625 -9.480469 L 5.609375 -9.480469 C 5.566406 -9.480469 5.5 -9.503906 5.433594 -9.570312 C 5.34375 -9.613281 5.324219 -9.699219 5.324219 -9.832031 Z M 5.324219 -9.832031 "/></g></g></g><g fill="#5ce1e6" fill-opacity="0.302"><g transform="translate(47.303694, 27.395511)"><g><path d="M 3.476562 -15.550781 C 3.167969 -15.550781 2.882812 -15.484375 2.660156 -15.375 C 2.441406 -15.265625 2.242188 -15.132812 2.089844 -14.957031 C 1.914062 -14.78125 1.804688 -14.605469 1.714844 -14.410156 C 1.628906 -14.1875 1.605469 -13.992188 1.605469 -13.8125 C 1.605469 -13.59375 1.648438 -13.375 1.738281 -13.175781 C 1.824219 -12.980469 1.9375 -12.800781 2.113281 -12.648438 C 2.265625 -12.472656 2.464844 -12.339844 2.707031 -12.253906 C 2.925781 -12.164062 3.191406 -12.121094 3.496094 -12.121094 L 6.050781 -12.121094 C 6.09375 -12.121094 6.160156 -12.078125 6.226562 -12.03125 C 6.292969 -11.964844 6.335938 -11.878906 6.335938 -11.769531 L 6.335938 -1.738281 C 6.335938 -1.539062 6.355469 -1.34375 6.445312 -1.144531 C 6.535156 -0.925781 6.644531 -0.746094 6.796875 -0.570312 C 6.953125 -0.394531 7.148438 -0.242188 7.371094 -0.132812 C 7.589844 -0.0234375 7.875 0.0234375 8.183594 0.0234375 C 8.492188 0.0234375 8.753906 -0.0234375 8.996094 -0.132812 C 9.21875 -0.242188 9.414062 -0.375 9.570312 -0.550781 C 9.722656 -0.726562 9.832031 -0.902344 9.921875 -1.121094 C 9.988281 -1.320312 10.03125 -1.519531 10.03125 -1.714844 L 10.03125 -11.746094 C 10.03125 -11.855469 10.054688 -11.945312 10.140625 -12.011719 C 10.207031 -12.054688 10.273438 -12.097656 10.316406 -12.097656 L 12.867188 -12.097656 C 13.175781 -12.097656 13.441406 -12.144531 13.683594 -12.253906 C 13.902344 -12.363281 14.101562 -12.496094 14.253906 -12.671875 C 14.410156 -12.824219 14.519531 -13 14.605469 -13.21875 C 14.671875 -13.441406 14.714844 -13.636719 14.714844 -13.835938 C 14.714844 -14.011719 14.671875 -14.210938 14.585938 -14.429688 C 14.496094 -14.628906 14.386719 -14.804688 14.230469 -14.980469 C 14.054688 -15.132812 13.859375 -15.265625 13.636719 -15.375 C 13.417969 -15.484375 13.15625 -15.550781 12.847656 -15.550781 Z M 3.476562 -15.550781 "/></g></g></g><g fill="#5ce1e6" fill-opacity="0.302"><g transform="translate(63.71277, 27.395511)"><g><path d="M 1.605469 -1.714844 C 1.605469 -1.496094 1.648438 -1.296875 1.738281 -1.101562 C 1.824219 -0.878906 1.9375 -0.703125 2.113281 -0.550781 C 2.265625 -0.375 2.464844 -0.242188 2.707031 -0.152344 C 2.925781 -0.0429688 3.191406 0 3.496094 0 C 3.804688 0 4.070312 -0.0429688 4.3125 -0.152344 C 4.53125 -0.265625 4.730469 -0.394531 4.882812 -0.570312 C 5.039062 -0.746094 5.148438 -0.925781 5.234375 -1.144531 C 5.300781 -1.34375 5.34375 -1.539062 5.34375 -1.738281 L 5.34375 -13.835938 C 5.34375 -14.035156 5.300781 -14.230469 5.214844 -14.453125 C 5.125 -14.648438 5.015625 -14.828125 4.863281 -15.003906 C 4.683594 -15.15625 4.488281 -15.289062 4.265625 -15.398438 C 4.046875 -15.507812 3.785156 -15.574219 3.476562 -15.574219 C 3.167969 -15.574219 2.882812 -15.507812 2.660156 -15.398438 C 2.441406 -15.289062 2.242188 -15.15625 2.089844 -14.980469 C 1.914062 -14.804688 1.804688 -14.628906 1.714844 -14.429688 C 1.628906 -14.210938 1.605469 -14.011719 1.605469 -13.835938 Z M 1.605469 -1.714844 "/></g></g></g><g fill="#5ce1e6" fill-opacity="0.302"><g transform="translate(70.72952, 27.395511)"><g><path d="M 1.582031 -1.714844 C 1.582031 -1.496094 1.628906 -1.296875 1.714844 -1.101562 C 1.804688 -0.878906 1.914062 -0.703125 2.089844 -0.550781 C 2.265625 -0.375 2.464844 -0.242188 2.707031 -0.152344 C 2.925781 -0.0429688 3.191406 0 3.496094 0 C 3.804688 0 4.070312 -0.0429688 4.289062 -0.152344 C 4.507812 -0.265625 4.707031 -0.394531 4.863281 -0.570312 C 5.015625 -0.746094 5.125 -0.925781 5.214844 -1.144531 C 5.300781 -1.34375 5.34375 -1.539062 5.34375 -1.738281 L 5.34375 -6.09375 C 5.34375 -6.203125 5.367188 -6.292969 5.457031 -6.355469 C 5.519531 -6.402344 5.585938 -6.445312 5.632812 -6.445312 L 8.578125 -6.445312 C 8.886719 -6.445312 9.152344 -6.488281 9.371094 -6.597656 C 9.589844 -6.710938 9.789062 -6.839844 9.941406 -7.015625 C 10.097656 -7.191406 10.207031 -7.371094 10.292969 -7.589844 C 10.382812 -7.789062 10.425781 -7.984375 10.425781 -8.183594 C 10.425781 -8.382812 10.382812 -8.578125 10.292969 -8.800781 C 10.207031 -8.996094 10.097656 -9.171875 9.941406 -9.347656 C 9.765625 -9.503906 9.570312 -9.636719 9.347656 -9.746094 C 9.128906 -9.855469 8.863281 -9.921875 8.558594 -9.921875 L 5.609375 -9.921875 C 5.566406 -9.921875 5.5 -9.941406 5.433594 -9.988281 C 5.34375 -10.03125 5.324219 -10.117188 5.324219 -10.25 L 5.324219 -11.769531 C 5.324219 -11.878906 5.34375 -11.964844 5.433594 -12.03125 C 5.5 -12.078125 5.566406 -12.121094 5.609375 -12.121094 L 9.699219 -12.121094 C 10.007812 -12.121094 10.273438 -12.164062 10.515625 -12.273438 C 10.734375 -12.382812 10.933594 -12.515625 11.085938 -12.691406 C 11.242188 -12.847656 11.351562 -13.023438 11.4375 -13.242188 C 11.503906 -13.441406 11.546875 -13.636719 11.546875 -13.835938 C 11.546875 -14.035156 11.503906 -14.230469 11.417969 -14.453125 C 11.328125 -14.648438 11.21875 -14.828125 11.066406 -15.003906 C 10.890625 -15.15625 10.691406 -15.289062 10.472656 -15.398438 C 10.25 -15.507812 9.988281 -15.574219 9.679688 -15.574219 L 3.453125 -15.574219 C 3.144531 -15.574219 2.859375 -15.507812 2.640625 -15.398438 C 2.417969 -15.289062 2.222656 -15.15625 2.066406 -14.980469 C 1.890625 -14.804688 1.78125 -14.628906 1.695312 -14.429688 C 1.605469 -14.210938 1.582031 -14.011719 1.582031 -13.835938 Z M 1.582031 -1.714844 "/></g></g></g><g fill="#5ce1e6" fill-opacity="0.302"><g transform="translate(83.971158, 27.395511)"><g><path d="M 1.605469 -1.714844 C 1.605469 -1.496094 1.648438 -1.296875 1.738281 -1.101562 C 1.824219 -0.878906 1.9375 -0.703125 2.113281 -0.550781 C 2.265625 -0.375 2.464844 -0.242188 2.707031 -0.152344 C 2.925781 -0.0429688 3.191406 0 3.496094 0 C 3.804688 0 4.070312 -0.0429688 4.3125 -0.152344 C 4.53125 -0.265625 4.730469 -0.394531 4.882812 -0.570312 C 5.039062 -0.746094 5.148438 -0.925781 5.234375 -1.144531 C 5.300781 -1.34375 5.34375 -1.539062 5.34375 -1.738281 L 5.34375 -13.835938 C 5.34375 -14.035156 5.300781 -14.230469 5.214844 -14.453125 C 5.125 -14.648438 5.015625 -14.828125 4.863281 -15.003906 C 4.683594 -15.15625 4.488281 -15.289062 4.265625 -15.398438 C 4.046875 -15.507812 3.785156 -15.574219 3.476562 -15.574219 C 3.167969 -15.574219 2.882812 -15.507812 2.660156 -15.398438 C 2.441406 -15.289062 2.242188 -15.15625 2.089844 -14.980469 C 1.914062 -14.804688 1.804688 -14.628906 1.714844 -14.429688 C 1.628906 -14.210938 1.605469 -14.011719 1.605469 -13.835938 Z M 1.605469 -1.714844 "/></g></g></g><g fill="#5ce1e6" fill-opacity="0.502"><g transform="translate(1.33387, 27.572757)"><g><path d="M 12.980469 -4.75 C 12.496094 -4.3125 12.011719 -4.003906 11.503906 -3.804688 C 11 -3.585938 10.40625 -3.496094 9.722656 -3.496094 C 8.996094 -3.496094 8.359375 -3.609375 7.832031 -3.828125 C 7.28125 -4.046875 6.820312 -4.332031 6.46875 -4.730469 C 6.09375 -5.125 5.808594 -5.566406 5.632812 -6.09375 C 5.457031 -6.621094 5.367188 -7.191406 5.367188 -7.808594 C 5.367188 -8.402344 5.457031 -8.976562 5.632812 -9.503906 C 5.808594 -10.03125 6.09375 -10.472656 6.46875 -10.867188 C 6.820312 -11.261719 7.28125 -11.570312 7.832031 -11.789062 C 8.359375 -12.011719 8.996094 -12.121094 9.722656 -12.121094 C 10.25 -12.121094 10.777344 -12.03125 11.308594 -11.878906 C 11.835938 -11.703125 12.320312 -11.4375 12.714844 -11.085938 C 12.757812 -11.042969 12.800781 -11.019531 12.847656 -10.976562 L 12.980469 -10.84375 C 13.132812 -10.691406 13.308594 -10.558594 13.527344 -10.449219 C 13.726562 -10.339844 13.992188 -10.292969 14.320312 -10.292969 C 14.628906 -10.292969 14.890625 -10.339844 15.113281 -10.449219 C 15.332031 -10.558594 15.53125 -10.691406 15.707031 -10.867188 C 15.859375 -11.019531 15.96875 -11.195312 16.058594 -11.417969 C 16.144531 -11.636719 16.191406 -11.835938 16.191406 -12.03125 C 16.191406 -12.449219 16.035156 -12.847656 15.726562 -13.199219 C 15.375 -13.59375 14.957031 -13.945312 14.472656 -14.253906 C 13.992188 -14.5625 13.507812 -14.804688 12.980469 -15.003906 C 12.449219 -15.199219 11.902344 -15.355469 11.351562 -15.441406 C 10.777344 -15.53125 10.25 -15.597656 9.722656 -15.597656 C 8.578125 -15.597656 7.5 -15.398438 6.511719 -15.023438 C 5.519531 -14.648438 4.664062 -14.121094 3.960938 -13.441406 C 3.234375 -12.757812 2.660156 -11.945312 2.265625 -11 C 1.847656 -10.03125 1.648438 -8.976562 1.648438 -7.808594 C 1.648438 -6.621094 1.847656 -5.566406 2.265625 -4.597656 C 2.660156 -3.628906 3.234375 -2.816406 3.960938 -2.132812 C 4.664062 -1.453125 5.519531 -0.925781 6.511719 -0.550781 C 7.5 -0.175781 8.578125 0 9.722656 0 C 10.691406 0 11.613281 -0.132812 12.515625 -0.417969 C 13.417969 -0.703125 14.230469 -1.144531 14.957031 -1.714844 C 15.265625 -1.9375 15.53125 -2.199219 15.792969 -2.484375 C 16.058594 -2.773438 16.191406 -3.125 16.191406 -3.5625 C 16.191406 -3.761719 16.144531 -3.960938 16.058594 -4.179688 C 15.96875 -4.378906 15.859375 -4.554688 15.707031 -4.730469 C 15.53125 -4.882812 15.332031 -5.015625 15.113281 -5.125 C 14.890625 -5.234375 14.628906 -5.300781 14.320312 -5.300781 C 13.992188 -5.300781 13.726562 -5.234375 13.527344 -5.125 C 13.308594 -5.015625 13.132812 -4.882812 12.980469 -4.75 Z M 12.980469 -4.75 "/></g></g></g><g fill="#5ce1e6" fill-opacity="0.502"><g transform="translate(19.194686, 27.572757)"><g><path d="M 3.496094 0 L 9.722656 0 C 10.03125 0 10.292969 -0.0429688 10.535156 -0.152344 C 10.757812 -0.265625 10.953125 -0.394531 11.109375 -0.570312 C 11.261719 -0.746094 11.371094 -0.925781 11.460938 -1.144531 C 11.527344 -1.34375 11.570312 -1.539062 11.570312 -1.738281 C 11.570312 -1.9375 11.527344 -2.132812 11.4375 -2.355469 C 11.351562 -2.550781 11.242188 -2.726562 11.085938 -2.902344 C 10.910156 -3.058594 10.710938 -3.191406 10.492188 -3.300781 C 10.273438 -3.410156 10.007812 -3.476562 9.699219 -3.476562 L 5.609375 -3.476562 C 5.566406 -3.476562 5.5 -3.496094 5.433594 -3.542969 C 5.34375 -3.585938 5.324219 -3.671875 5.324219 -3.804688 L 5.324219 -6.09375 C 5.324219 -6.203125 5.34375 -6.292969 5.433594 -6.355469 C 5.5 -6.402344 5.566406 -6.445312 5.609375 -6.445312 L 8.558594 -6.445312 C 8.863281 -6.445312 9.128906 -6.488281 9.347656 -6.597656 C 9.570312 -6.710938 9.765625 -6.839844 9.921875 -7.015625 C 10.074219 -7.191406 10.183594 -7.371094 10.273438 -7.589844 C 10.359375 -7.789062 10.40625 -7.984375 10.40625 -8.183594 C 10.40625 -8.382812 10.359375 -8.578125 10.273438 -8.800781 C 10.183594 -8.996094 10.074219 -9.171875 9.921875 -9.347656 C 9.746094 -9.503906 9.546875 -9.636719 9.328125 -9.746094 C 9.105469 -9.855469 8.84375 -9.921875 8.535156 -9.921875 L 5.585938 -9.921875 C 5.542969 -9.921875 5.476562 -9.941406 5.410156 -9.988281 C 5.324219 -10.03125 5.300781 -10.117188 5.300781 -10.25 L 5.300781 -11.769531 C 5.300781 -11.878906 5.324219 -11.964844 5.410156 -12.03125 C 5.476562 -12.078125 5.542969 -12.121094 5.585938 -12.121094 L 9.679688 -12.121094 C 9.988281 -12.121094 10.25 -12.164062 10.492188 -12.273438 C 10.710938 -12.382812 10.910156 -12.515625 11.066406 -12.691406 C 11.21875 -12.847656 11.328125 -13.023438 11.417969 -13.242188 C 11.484375 -13.441406 11.527344 -13.636719 11.527344 -13.835938 C 11.527344 -14.035156 11.484375 -14.230469 11.394531 -14.453125 C 11.308594 -14.648438 11.195312 -14.828125 11.042969 -15.003906 C 10.867188 -15.15625 10.667969 -15.289062 10.449219 -15.398438 C 10.230469 -15.507812 9.964844 -15.574219 9.65625 -15.574219 L 3.429688 -15.574219 C 3.125 -15.574219 2.835938 -15.507812 2.617188 -15.398438 C 2.398438 -15.289062 2.199219 -15.15625 2.046875 -14.980469 C 1.871094 -14.804688 1.761719 -14.628906 1.671875 -14.429688 C 1.582031 -14.210938 1.5625 -14.011719 1.5625 -13.835938 L 1.5625 -1.714844 C 1.5625 -1.496094 1.605469 -1.277344 1.695312 -1.078125 C 1.78125 -0.859375 1.914062 -0.683594 2.089844 -0.527344 C 2.265625 -0.351562 2.464844 -0.21875 2.707031 -0.132812 C 2.949219 -0.0429688 3.210938 0 3.496094 0 Z M 3.496094 0 "/></g></g></g><g fill="#5ce1e6" fill-opacity="0.502"><g transform="translate(32.436324, 27.572757)"><g><path d="M 9.589844 -6.578125 C 10.425781 -7.039062 11.085938 -7.609375 11.546875 -8.269531 C 11.988281 -8.929688 12.230469 -9.789062 12.230469 -10.800781 C 12.230469 -11.394531 12.097656 -11.988281 11.878906 -12.5625 C 11.660156 -13.132812 11.328125 -13.660156 10.890625 -14.121094 C 10.449219 -14.5625 9.921875 -14.9375 9.28125 -15.199219 C 8.644531 -15.464844 7.917969 -15.617188 7.105469 -15.617188 L 3.519531 -15.617188 C 3.210938 -15.617188 2.925781 -15.550781 2.707031 -15.441406 C 2.484375 -15.332031 2.289062 -15.199219 2.132812 -15.023438 C 1.957031 -14.847656 1.847656 -14.671875 1.761719 -14.472656 C 1.671875 -14.253906 1.648438 -14.054688 1.648438 -13.859375 L 1.648438 -1.761719 C 1.648438 -1.5625 1.671875 -1.363281 1.761719 -1.164062 C 1.847656 -0.945312 1.957031 -0.769531 2.113281 -0.59375 C 2.265625 -0.417969 2.464844 -0.265625 2.683594 -0.152344 C 2.902344 -0.0429688 3.191406 0 3.496094 0 C 3.804688 0 4.070312 -0.0429688 4.3125 -0.152344 C 4.53125 -0.265625 4.730469 -0.394531 4.882812 -0.570312 C 5.039062 -0.746094 5.148438 -0.925781 5.234375 -1.144531 C 5.300781 -1.34375 5.34375 -1.539062 5.34375 -1.738281 L 5.34375 -5.761719 C 5.34375 -5.851562 5.367188 -5.917969 5.410156 -5.9375 C 5.457031 -5.960938 5.476562 -5.984375 5.5 -5.984375 C 5.585938 -5.984375 5.699219 -5.917969 5.785156 -5.808594 L 8.863281 -0.859375 C 9.019531 -0.59375 9.238281 -0.394531 9.503906 -0.242188 C 9.765625 -0.0664062 10.097656 0 10.472656 0 C 10.777344 0 11.042969 -0.0429688 11.261719 -0.152344 C 11.484375 -0.265625 11.679688 -0.394531 11.835938 -0.570312 C 11.988281 -0.726562 12.097656 -0.902344 12.1875 -1.121094 C 12.273438 -1.34375 12.320312 -1.539062 12.320312 -1.738281 C 12.320312 -2.046875 12.230469 -2.355469 12.054688 -2.617188 C 11.964844 -2.726562 11.789062 -2.992188 11.527344 -3.429688 C 11.261719 -3.847656 10.976562 -4.3125 10.667969 -4.816406 C 10.492188 -5.058594 10.339844 -5.300781 10.207031 -5.519531 C 10.074219 -5.742188 9.941406 -5.960938 9.832031 -6.136719 C 9.699219 -6.3125 9.636719 -6.46875 9.589844 -6.578125 Z M 5.324219 -9.832031 L 5.324219 -11.769531 C 5.324219 -11.878906 5.34375 -11.964844 5.433594 -12.03125 C 5.5 -12.078125 5.566406 -12.121094 5.609375 -12.121094 L 7.0625 -12.121094 C 7.5 -12.121094 7.851562 -11.988281 8.09375 -11.769531 C 8.335938 -11.546875 8.46875 -11.21875 8.46875 -10.800781 C 8.46875 -10.359375 8.335938 -10.03125 8.09375 -9.8125 C 7.851562 -9.589844 7.5 -9.480469 7.0625 -9.480469 L 5.609375 -9.480469 C 5.566406 -9.480469 5.5 -9.503906 5.433594 -9.570312 C 5.34375 -9.613281 5.324219 -9.699219 5.324219 -9.832031 Z M 5.324219 -9.832031 "/></g></g></g><g fill="#5ce1e6" fill-opacity="0.502"><g transform="translate(46.469824, 27.572757)"><g><path d="M 3.476562 -15.550781 C 3.167969 -15.550781 2.882812 -15.484375 2.660156 -15.375 C 2.441406 -15.265625 2.242188 -15.132812 2.089844 -14.957031 C 1.914062 -14.78125 1.804688 -14.605469 1.714844 -14.410156 C 1.628906 -14.1875 1.605469 -13.992188 1.605469 -13.8125 C 1.605469 -13.59375 1.648438 -13.375 1.738281 -13.175781 C 1.824219 -12.980469 1.9375 -12.800781 2.113281 -12.648438 C 2.265625 -12.472656 2.464844 -12.339844 2.707031 -12.253906 C 2.925781 -12.164062 3.191406 -12.121094 3.496094 -12.121094 L 6.050781 -12.121094 C 6.09375 -12.121094 6.160156 -12.078125 6.226562 -12.03125 C 6.292969 -11.964844 6.335938 -11.878906 6.335938 -11.769531 L 6.335938 -1.738281 C 6.335938 -1.539062 6.355469 -1.34375 6.445312 -1.144531 C 6.535156 -0.925781 6.644531 -0.746094 6.796875 -0.570312 C 6.953125 -0.394531 7.148438 -0.242188 7.371094 -0.132812 C 7.589844 -0.0234375 7.875 0.0234375 8.183594 0.0234375 C 8.492188 0.0234375 8.753906 -0.0234375 8.996094 -0.132812 C 9.21875 -0.242188 9.414062 -0.375 9.570312 -0.550781 C 9.722656 -0.726562 9.832031 -0.902344 9.921875 -1.121094 C 9.988281 -1.320312 10.03125 -1.519531 10.03125 -1.714844 L 10.03125 -11.746094 C 10.03125 -11.855469 10.054688 -11.945312 10.140625 -12.011719 C 10.207031 -12.054688 10.273438 -12.097656 10.316406 -12.097656 L 12.867188 -12.097656 C 13.175781 -12.097656 13.441406 -12.144531 13.683594 -12.253906 C 13.902344 -12.363281 14.101562 -12.496094 14.253906 -12.671875 C 14.410156 -12.824219 14.519531 -13 14.605469 -13.21875 C 14.671875 -13.441406 14.714844 -13.636719 14.714844 -13.835938 C 14.714844 -14.011719 14.671875 -14.210938 14.585938 -14.429688 C 14.496094 -14.628906 14.386719 -14.804688 14.230469 -14.980469 C 14.054688 -15.132812 13.859375 -15.265625 13.636719 -15.375 C 13.417969 -15.484375 13.15625 -15.550781 12.847656 -15.550781 Z M 3.476562 -15.550781 "/></g></g></g><g fill="#5ce1e6" fill-opacity="0.502"><g transform="translate(62.8789, 27.572757)"><g><path d="M 1.605469 -1.714844 C 1.605469 -1.496094 1.648438 -1.296875 1.738281 -1.101562 C 1.824219 -0.878906 1.9375 -0.703125 2.113281 -0.550781 C 2.265625 -0.375 2.464844 -0.242188 2.707031 -0.152344 C 2.925781 -0.0429688 3.191406 0 3.496094 0 C 3.804688 0 4.070312 -0.0429688 4.3125 -0.152344 C 4.53125 -0.265625 4.730469 -0.394531 4.882812 -0.570312 C 5.039062 -0.746094 5.148438 -0.925781 5.234375 -1.144531 C 5.300781 -1.34375 5.34375 -1.539062 5.34375 -1.738281 L 5.34375 -13.835938 C 5.34375 -14.035156 5.300781 -14.230469 5.214844 -14.453125 C 5.125 -14.648438 5.015625 -14.828125 4.863281 -15.003906 C 4.683594 -15.15625 4.488281 -15.289062 4.265625 -15.398438 C 4.046875 -15.507812 3.785156 -15.574219 3.476562 -15.574219 C 3.167969 -15.574219 2.882812 -15.507812 2.660156 -15.398438 C 2.441406 -15.289062 2.242188 -15.15625 2.089844 -14.980469 C 1.914062 -14.804688 1.804688 -14.628906 1.714844 -14.429688 C 1.628906 -14.210938 1.605469 -14.011719 1.605469 -13.835938 Z M 1.605469 -1.714844 "/></g></g></g><g fill="#5ce1e6" fill-opacity="0.502"><g transform="translate(69.89565, 27.572757)"><g><path d="M 1.582031 -1.714844 C 1.582031 -1.496094 1.628906 -1.296875 1.714844 -1.101562 C 1.804688 -0.878906 1.914062 -0.703125 2.089844 -0.550781 C 2.265625 -0.375 2.464844 -0.242188 2.707031 -0.152344 C 2.925781 -0.0429688 3.191406 0 3.496094 0 C 3.804688 0 4.070312 -0.0429688 4.289062 -0.152344 C 4.507812 -0.265625 4.707031 -0.394531 4.863281 -0.570312 C 5.015625 -0.746094 5.125 -0.925781 5.214844 -1.144531 C 5.300781 -1.34375 5.34375 -1.539062 5.34375 -1.738281 L 5.34375 -6.09375 C 5.34375 -6.203125 5.367188 -6.292969 5.457031 -6.355469 C 5.519531 -6.402344 5.585938 -6.445312 5.632812 -6.445312 L 8.578125 -6.445312 C 8.886719 -6.445312 9.152344 -6.488281 9.371094 -6.597656 C 9.589844 -6.710938 9.789062 -6.839844 9.941406 -7.015625 C 10.097656 -7.191406 10.207031 -7.371094 10.292969 -7.589844 C 10.382812 -7.789062 10.425781 -7.984375 10.425781 -8.183594 C 10.425781 -8.382812 10.382812 -8.578125 10.292969 -8.800781 C 10.207031 -8.996094 10.097656 -9.171875 9.941406 -9.347656 C 9.765625 -9.503906 9.570312 -9.636719 9.347656 -9.746094 C 9.128906 -9.855469 8.863281 -9.921875 8.558594 -9.921875 L 5.609375 -9.921875 C 5.566406 -9.921875 5.5 -9.941406 5.433594 -9.988281 C 5.34375 -10.03125 5.324219 -10.117188 5.324219 -10.25 L 5.324219 -11.769531 C 5.324219 -11.878906 5.34375 -11.964844 5.433594 -12.03125 C 5.5 -12.078125 5.566406 -12.121094 5.609375 -12.121094 L 9.699219 -12.121094 C 10.007812 -12.121094 10.273438 -12.164062 10.515625 -12.273438 C 10.734375 -12.382812 10.933594 -12.515625 11.085938 -12.691406 C 11.242188 -12.847656 11.351562 -13.023438 11.4375 -13.242188 C 11.503906 -13.441406 11.546875 -13.636719 11.546875 -13.835938 C 11.546875 -14.035156 11.503906 -14.230469 11.417969 -14.453125 C 11.328125 -14.648438 11.21875 -14.828125 11.066406 -15.003906 C 10.890625 -15.15625 10.691406 -15.289062 10.472656 -15.398438 C 10.25 -15.507812 9.988281 -15.574219 9.679688 -15.574219 L 3.453125 -15.574219 C 3.144531 -15.574219 2.859375 -15.507812 2.640625 -15.398438 C 2.417969 -15.289062 2.222656 -15.15625 2.066406 -14.980469 C 1.890625 -14.804688 1.78125 -14.628906 1.695312 -14.429688 C 1.605469 -14.210938 1.582031 -14.011719 1.582031 -13.835938 Z M 1.582031 -1.714844 "/></g></g></g><g fill="#5ce1e6" fill-opacity="0.502"><g transform="translate(83.137288, 27.572757)"><g><path d="M 1.605469 -1.714844 C 1.605469 -1.496094 1.648438 -1.296875 1.738281 -1.101562 C 1.824219 -0.878906 1.9375 -0.703125 2.113281 -0.550781 C 2.265625 -0.375 2.464844 -0.242188 2.707031 -0.152344 C 2.925781 -0.0429688 3.191406 0 3.496094 0 C 3.804688 0 4.070312 -0.0429688 4.3125 -0.152344 C 4.53125 -0.265625 4.730469 -0.394531 4.882812 -0.570312 C 5.039062 -0.746094 5.148438 -0.925781 5.234375 -1.144531 C 5.300781 -1.34375 5.34375 -1.539062 5.34375 -1.738281 L 5.34375 -13.835938 C 5.34375 -14.035156 5.300781 -14.230469 5.214844 -14.453125 C 5.125 -14.648438 5.015625 -14.828125 4.863281 -15.003906 C 4.683594 -15.15625 4.488281 -15.289062 4.265625 -15.398438 C 4.046875 -15.507812 3.785156 -15.574219 3.476562 -15.574219 C 3.167969 -15.574219 2.882812 -15.507812 2.660156 -15.398438 C 2.441406 -15.289062 2.242188 -15.15625 2.089844 -14.980469 C 1.914062 -14.804688 1.804688 -14.628906 1.714844 -14.429688 C 1.628906 -14.210938 1.605469 -14.011719 1.605469 -13.835938 Z M 1.605469 -1.714844 "/></g></g></g><g fill="#63b3ed" fill-opacity="1"><g transform="translate(0.5, 27.750001)"><g><path d="M 12.980469 -4.75 C 12.496094 -4.3125 12.011719 -4.003906 11.503906 -3.804688 C 11 -3.585938 10.40625 -3.496094 9.722656 -3.496094 C 8.996094 -3.496094 8.359375 -3.609375 7.832031 -3.828125 C 7.28125 -4.046875 6.820312 -4.332031 6.46875 -4.730469 C 6.09375 -5.125 5.808594 -5.566406 5.632812 -6.09375 C 5.457031 -6.621094 5.367188 -7.191406 5.367188 -7.808594 C 5.367188 -8.402344 5.457031 -8.976562 5.632812 -9.503906 C 5.808594 -10.03125 6.09375 -10.472656 6.46875 -10.867188 C 6.820312 -11.261719 7.28125 -11.570312 7.832031 -11.789062 C 8.359375 -12.011719 8.996094 -12.121094 9.722656 -12.121094 C 10.25 -12.121094 10.777344 -12.03125 11.308594 -11.878906 C 11.835938 -11.703125 12.320312 -11.4375 12.714844 -11.085938 C 12.757812 -11.042969 12.800781 -11.019531 12.847656 -10.976562 L 12.980469 -10.84375 C 13.132812 -10.691406 13.308594 -10.558594 13.527344 -10.449219 C 13.726562 -10.339844 13.992188 -10.292969 14.320312 -10.292969 C 14.628906 -10.292969 14.890625 -10.339844 15.113281 -10.449219 C 15.332031 -10.558594 15.53125 -10.691406 15.707031 -10.867188 C 15.859375 -11.019531 15.96875 -11.195312 16.058594 -11.417969 C 16.144531 -11.636719 16.191406 -11.835938 16.191406 -12.03125 C 16.191406 -12.449219 16.035156 -12.847656 15.726562 -13.199219 C 15.375 -13.59375 14.957031 -13.945312 14.472656 -14.253906 C 13.992188 -14.5625 13.507812 -14.804688 12.980469 -15.003906 C 12.449219 -15.199219 11.902344 -15.355469 11.351562 -15.441406 C 10.777344 -15.53125 10.25 -15.597656 9.722656 -15.597656 C 8.578125 -15.597656 7.5 -15.398438 6.511719 -15.023438 C 5.519531 -14.648438 4.664062 -14.121094 3.960938 -13.441406 C 3.234375 -12.757812 2.660156 -11.945312 2.265625 -11 C 1.847656 -10.03125 1.648438 -8.976562 1.648438 -7.808594 C 1.648438 -6.621094 1.847656 -5.566406 2.265625 -4.597656 C 2.660156 -3.628906 3.234375 -2.816406 3.960938 -2.132812 C 4.664062 -1.453125 5.519531 -0.925781 6.511719 -0.550781 C 7.5 -0.175781 8.578125 0 9.722656 0 C 10.691406 0 11.613281 -0.132812 12.515625 -0.417969 C 13.417969 -0.703125 14.230469 -1.144531 14.957031 -1.714844 C 15.265625 -1.9375 15.53125 -2.199219 15.792969 -2.484375 C 16.058594 -2.773438 16.191406 -3.125 16.191406 -3.5625 C 16.191406 -3.761719 16.144531 -3.960938 16.058594 -4.179688 C 15.96875 -4.378906 15.859375 -4.554688 15.707031 -4.730469 C 15.53125 -4.882812 15.332031 -5.015625 15.113281 -5.125 C 14.890625 -5.234375 14.628906 -5.300781 14.320312 -5.300781 C 13.992188 -5.300781 13.726562 -5.234375 13.527344 -5.125 C 13.308594 -5.015625 13.132812 -4.882812 12.980469 -4.75 Z M 12.980469 -4.75 "/></g></g></g><g fill="#63b3ed" fill-opacity="1"><g transform="translate(18.360816, 27.750001)"><g><path d="M 3.496094 0 L 9.722656 0 C 10.03125 0 10.292969 -0.0429688 10.535156 -0.152344 C 10.757812 -0.265625 10.953125 -0.394531 11.109375 -0.570312 C 11.261719 -0.746094 11.371094 -0.925781 11.460938 -1.144531 C 11.527344 -1.34375 11.570312 -1.539062 11.570312 -1.738281 C 11.570312 -1.9375 11.527344 -2.132812 11.4375 -2.355469 C 11.351562 -2.550781 11.242188 -2.726562 11.085938 -2.902344 C 10.910156 -3.058594 10.710938 -3.191406 10.492188 -3.300781 C 10.273438 -3.410156 10.007812 -3.476562 9.699219 -3.476562 L 5.609375 -3.476562 C 5.566406 -3.476562 5.5 -3.496094 5.433594 -3.542969 C 5.34375 -3.585938 5.324219 -3.671875 5.324219 -3.804688 L 5.324219 -6.09375 C 5.324219 -6.203125 5.34375 -6.292969 5.433594 -6.355469 C 5.5 -6.402344 5.566406 -6.445312 5.609375 -6.445312 L 8.558594 -6.445312 C 8.863281 -6.445312 9.128906 -6.488281 9.347656 -6.597656 C 9.570312 -6.710938 9.765625 -6.839844 9.921875 -7.015625 C 10.074219 -7.191406 10.183594 -7.371094 10.273438 -7.589844 C 10.359375 -7.789062 10.40625 -7.984375 10.40625 -8.183594 C 10.40625 -8.382812 10.359375 -8.578125 10.273438 -8.800781 C 10.183594 -8.996094 10.074219 -9.171875 9.921875 -9.347656 C 9.746094 -9.503906 9.546875 -9.636719 9.328125 -9.746094 C 9.105469 -9.855469 8.84375 -9.921875 8.535156 -9.921875 L 5.585938 -9.921875 C 5.542969 -9.921875 5.476562 -9.941406 5.410156 -9.988281 C 5.324219 -10.03125 5.300781 -10.117188 5.300781 -10.25 L 5.300781 -11.769531 C 5.300781 -11.878906 5.324219 -11.964844 5.410156 -12.03125 C 5.476562 -12.078125 5.542969 -12.121094 5.585938 -12.121094 L 9.679688 -12.121094 C 9.988281 -12.121094 10.25 -12.164062 10.492188 -12.273438 C 10.710938 -12.382812 10.910156 -12.515625 11.066406 -12.691406 C 11.21875 -12.847656 11.328125 -13.023438 11.417969 -13.242188 C 11.484375 -13.441406 11.527344 -13.636719 11.527344 -13.835938 C 11.527344 -14.035156 11.484375 -14.230469 11.394531 -14.453125 C 11.308594 -14.648438 11.195312 -14.828125 11.042969 -15.003906 C 10.867188 -15.15625 10.667969 -15.289062 10.449219 -15.398438 C 10.230469 -15.507812 9.964844 -15.574219 9.65625 -15.574219 L 3.429688 -15.574219 C 3.125 -15.574219 2.835938 -15.507812 2.617188 -15.398438 C 2.398438 -15.289062 2.199219 -15.15625 2.046875 -14.980469 C 1.871094 -14.804688 1.761719 -14.628906 1.671875 -14.429688 C 1.582031 -14.210938 1.5625 -14.011719 1.5625 -13.835938 L 1.5625 -1.714844 C 1.5625 -1.496094 1.605469 -1.277344 1.695312 -1.078125 C 1.78125 -0.859375 1.914062 -0.683594 2.089844 -0.527344 C 2.265625 -0.351562 2.464844 -0.21875 2.707031 -0.132812 C 2.949219 -0.0429688 3.210938 0 3.496094 0 Z M 3.496094 0 "/></g></g></g><g fill="#63b3ed" fill-opacity="1"><g transform="translate(31.602454, 27.750001)"><g><path d="M 9.589844 -6.578125 C 10.425781 -7.039062 11.085938 -7.609375 11.546875 -8.269531 C 11.988281 -8.929688 12.230469 -9.789062 12.230469 -10.800781 C 12.230469 -11.394531 12.097656 -11.988281 11.878906 -12.5625 C 11.660156 -13.132812 11.328125 -13.660156 10.890625 -14.121094 C 10.449219 -14.5625 9.921875 -14.9375 9.28125 -15.199219 C 8.644531 -15.464844 7.917969 -15.617188 7.105469 -15.617188 L 3.519531 -15.617188 C 3.210938 -15.617188 2.925781 -15.550781 2.707031 -15.441406 C 2.484375 -15.332031 2.289062 -15.199219 2.132812 -15.023438 C 1.957031 -14.847656 1.847656 -14.671875 1.761719 -14.472656 C 1.671875 -14.253906 1.648438 -14.054688 1.648438 -13.859375 L 1.648438 -1.761719 C 1.648438 -1.5625 1.671875 -1.363281 1.761719 -1.164062 C 1.847656 -0.945312 1.957031 -0.769531 2.113281 -0.59375 C 2.265625 -0.417969 2.464844 -0.265625 2.683594 -0.152344 C 2.902344 -0.0429688 3.191406 0 3.496094 0 C 3.804688 0 4.070312 -0.0429688 4.3125 -0.152344 C 4.53125 -0.265625 4.730469 -0.394531 4.882812 -0.570312 C 5.039062 -0.746094 5.148438 -0.925781 5.234375 -1.144531 C 5.300781 -1.34375 5.34375 -1.539062 5.34375 -1.738281 L 5.34375 -5.761719 C 5.34375 -5.851562 5.367188 -5.917969 5.410156 -5.9375 C 5.457031 -5.960938 5.476562 -5.984375 5.5 -5.984375 C 5.585938 -5.984375 5.699219 -5.917969 5.785156 -5.808594 L 8.863281 -0.859375 C 9.019531 -0.59375 9.238281 -0.394531 9.503906 -0.242188 C 9.765625 -0.0664062 10.097656 0 10.472656 0 C 10.777344 0 11.042969 -0.0429688 11.261719 -0.152344 C 11.484375 -0.265625 11.679688 -0.394531 11.835938 -0.570312 C 11.988281 -0.726562 12.097656 -0.902344 12.1875 -1.121094 C 12.273438 -1.34375 12.320312 -1.539062 12.320312 -1.738281 C 12.320312 -2.046875 12.230469 -2.355469 12.054688 -2.617188 C 11.964844 -2.726562 11.789062 -2.992188 11.527344 -3.429688 C 11.261719 -3.847656 10.976562 -4.3125 10.667969 -4.816406 C 10.492188 -5.058594 10.339844 -5.300781 10.207031 -5.519531 C 10.074219 -5.742188 9.941406 -5.960938 9.832031 -6.136719 C 9.699219 -6.3125 9.636719 -6.46875 9.589844 -6.578125 Z M 5.324219 -9.832031 L 5.324219 -11.769531 C 5.324219 -11.878906 5.34375 -11.964844 5.433594 -12.03125 C 5.5 -12.078125 5.566406 -12.121094 5.609375 -12.121094 L 7.0625 -12.121094 C 7.5 -12.121094 7.851562 -11.988281 8.09375 -11.769531 C 8.335938 -11.546875 8.46875 -11.21875 8.46875 -10.800781 C 8.46875 -10.359375 8.335938 -10.03125 8.09375 -9.8125 C 7.851562 -9.589844 7.5 -9.480469 7.0625 -9.480469 L 5.609375 -9.480469 C 5.566406 -9.480469 5.5 -9.503906 5.433594 -9.570312 C 5.34375 -9.613281 5.324219 -9.699219 5.324219 -9.832031 Z M 5.324219 -9.832031 "/></g></g></g><g fill="#63b3ed" fill-opacity="1"><g transform="translate(45.635954, 27.750001)"><g><path d="M 3.476562 -15.550781 C 3.167969 -15.550781 2.882812 -15.484375 2.660156 -15.375 C 2.441406 -15.265625 2.242188 -15.132812 2.089844 -14.957031 C 1.914062 -14.78125 1.804688 -14.605469 1.714844 -14.410156 C 1.628906 -14.1875 1.605469 -13.992188 1.605469 -13.8125 C 1.605469 -13.59375 1.648438 -13.375 1.738281 -13.175781 C 1.824219 -12.980469 1.9375 -12.800781 2.113281 -12.648438 C 2.265625 -12.472656 2.464844 -12.339844 2.707031 -12.253906 C 2.925781 -12.164062 3.191406 -12.121094 3.496094 -12.121094 L 6.050781 -12.121094 C 6.09375 -12.121094 6.160156 -12.078125 6.226562 -12.03125 C 6.292969 -11.964844 6.335938 -11.878906 6.335938 -11.769531 L 6.335938 -1.738281 C 6.335938 -1.539062 6.355469 -1.34375 6.445312 -1.144531 C 6.535156 -0.925781 6.644531 -0.746094 6.796875 -0.570312 C 6.953125 -0.394531 7.148438 -0.242188 7.371094 -0.132812 C 7.589844 -0.0234375 7.875 0.0234375 8.183594 0.0234375 C 8.492188 0.0234375 8.753906 -0.0234375 8.996094 -0.132812 C 9.21875 -0.242188 9.414062 -0.375 9.570312 -0.550781 C 9.722656 -0.726562 9.832031 -0.902344 9.921875 -1.121094 C 9.988281 -1.320312 10.03125 -1.519531 10.03125 -1.714844 L 10.03125 -11.746094 C 10.03125 -11.855469 10.054688 -11.945312 10.140625 -12.011719 C 10.207031 -12.054688 10.273438 -12.097656 10.316406 -12.097656 L 12.867188 -12.097656 C 13.175781 -12.097656 13.441406 -12.144531 13.683594 -12.253906 C 13.902344 -12.363281 14.101562 -12.496094 14.253906 -12.671875 C 14.410156 -12.824219 14.519531 -13 14.605469 -13.21875 C 14.671875 -13.441406 14.714844 -13.636719 14.714844 -13.835938 C 14.714844 -14.011719 14.671875 -14.210938 14.585938 -14.429688 C 14.496094 -14.628906 14.386719 -14.804688 14.230469 -14.980469 C 14.054688 -15.132812 13.859375 -15.265625 13.636719 -15.375 C 13.417969 -15.484375 13.15625 -15.550781 12.847656 -15.550781 Z M 3.476562 -15.550781 "/></g></g></g><g fill="#63b3ed" fill-opacity="1"><g transform="translate(62.04503, 27.750001)"><g><path d="M 1.605469 -1.714844 C 1.605469 -1.496094 1.648438 -1.296875 1.738281 -1.101562 C 1.824219 -0.878906 1.9375 -0.703125 2.113281 -0.550781 C 2.265625 -0.375 2.464844 -0.242188 2.707031 -0.152344 C 2.925781 -0.0429688 3.191406 0 3.496094 0 C 3.804688 0 4.070312 -0.0429688 4.3125 -0.152344 C 4.53125 -0.265625 4.730469 -0.394531 4.882812 -0.570312 C 5.039062 -0.746094 5.148438 -0.925781 5.234375 -1.144531 C 5.300781 -1.34375 5.34375 -1.539062 5.34375 -1.738281 L 5.34375 -13.835938 C 5.34375 -14.035156 5.300781 -14.230469 5.214844 -14.453125 C 5.125 -14.648438 5.015625 -14.828125 4.863281 -15.003906 C 4.683594 -15.15625 4.488281 -15.289062 4.265625 -15.398438 C 4.046875 -15.507812 3.785156 -15.574219 3.476562 -15.574219 C 3.167969 -15.574219 2.882812 -15.507812 2.660156 -15.398438 C 2.441406 -15.289062 2.242188 -15.15625 2.089844 -14.980469 C 1.914062 -14.804688 1.804688 -14.628906 1.714844 -14.429688 C 1.628906 -14.210938 1.605469 -14.011719 1.605469 -13.835938 Z M 1.605469 -1.714844 "/></g></g></g><g fill="#63b3ed" fill-opacity="1"><g transform="translate(69.06178, 27.750001)"><g><path d="M 1.582031 -1.714844 C 1.582031 -1.496094 1.628906 -1.296875 1.714844 -1.101562 C 1.804688 -0.878906 1.914062 -0.703125 2.089844 -0.550781 C 2.265625 -0.375 2.464844 -0.242188 2.707031 -0.152344 C 2.925781 -0.0429688 3.191406 0 3.496094 0 C 3.804688 0 4.070312 -0.0429688 4.289062 -0.152344 C 4.507812 -0.265625 4.707031 -0.394531 4.863281 -0.570312 C 5.015625 -0.746094 5.125 -0.925781 5.214844 -1.144531 C 5.300781 -1.34375 5.34375 -1.539062 5.34375 -1.738281 L 5.34375 -6.09375 C 5.34375 -6.203125 5.367188 -6.292969 5.457031 -6.355469 C 5.519531 -6.402344 5.585938 -6.445312 5.632812 -6.445312 L 8.578125 -6.445312 C 8.886719 -6.445312 9.152344 -6.488281 9.371094 -6.597656 C 9.589844 -6.710938 9.789062 -6.839844 9.941406 -7.015625 C 10.097656 -7.191406 10.207031 -7.371094 10.292969 -7.589844 C 10.382812 -7.789062 10.425781 -7.984375 10.425781 -8.183594 C 10.425781 -8.382812 10.382812 -8.578125 10.292969 -8.800781 C 10.207031 -8.996094 10.097656 -9.171875 9.941406 -9.347656 C 9.765625 -9.503906 9.570312 -9.636719 9.347656 -9.746094 C 9.128906 -9.855469 8.863281 -9.921875 8.558594 -9.921875 L 5.609375 -9.921875 C 5.566406 -9.921875 5.5 -9.941406 5.433594 -9.988281 C 5.34375 -10.03125 5.324219 -10.117188 5.324219 -10.25 L 5.324219 -11.769531 C 5.324219 -11.878906 5.34375 -11.964844 5.433594 -12.03125 C 5.5 -12.078125 5.566406 -12.121094 5.609375 -12.121094 L 9.699219 -12.121094 C 10.007812 -12.121094 10.273438 -12.164062 10.515625 -12.273438 C 10.734375 -12.382812 10.933594 -12.515625 11.085938 -12.691406 C 11.242188 -12.847656 11.351562 -13.023438 11.4375 -13.242188 C 11.503906 -13.441406 11.546875 -13.636719 11.546875 -13.835938 C 11.546875 -14.035156 11.503906 -14.230469 11.417969 -14.453125 C 11.328125 -14.648438 11.21875 -14.828125 11.066406 -15.003906 C 10.890625 -15.15625 10.691406 -15.289062 10.472656 -15.398438 C 10.25 -15.507812 9.988281 -15.574219 9.679688 -15.574219 L 3.453125 -15.574219 C 3.144531 -15.574219 2.859375 -15.507812 2.640625 -15.398438 C 2.417969 -15.289062 2.222656 -15.15625 2.066406 -14.980469 C 1.890625 -14.804688 1.78125 -14.628906 1.695312 -14.429688 C 1.605469 -14.210938 1.582031 -14.011719 1.582031 -13.835938 Z M 1.582031 -1.714844 "/></g></g></g><g fill="#63b3ed" fill-opacity="1"><g transform="translate(82.303418, 27.750001)"><g><path d="M 1.605469 -1.714844 C 1.605469 -1.496094 1.648438 -1.296875 1.738281 -1.101562 C 1.824219 -0.878906 1.9375 -0.703125 2.113281 -0.550781 C 2.265625 -0.375 2.464844 -0.242188 2.707031 -0.152344 C 2.925781 -0.0429688 3.191406 0 3.496094 0 C 3.804688 0 4.070312 -0.0429688 4.3125 -0.152344 C 4.53125 -0.265625 4.730469 -0.394531 4.882812 -0.570312 C 5.039062 -0.746094 5.148438 -0.925781 5.234375 -1.144531 C 5.300781 -1.34375 5.34375 -1.539062 5.34375 -1.738281 L 5.34375 -13.835938 C 5.34375 -14.035156 5.300781 -14.230469 5.214844 -14.453125 C 5.125 -14.648438 5.015625 -14.828125 4.863281 -15.003906 C 4.683594 -15.15625 4.488281 -15.289062 4.265625 -15.398438 C 4.046875 -15.507812 3.785156 -15.574219 3.476562 -15.574219 C 3.167969 -15.574219 2.882812 -15.507812 2.660156 -15.398438 C 2.441406 -15.289062 2.242188 -15.15625 2.089844 -14.980469 C 1.914062 -14.804688 1.804688 -14.628906 1.714844 -14.429688 C 1.628906 -14.210938 1.605469 -14.011719 1.605469 -13.835938 Z M 1.605469 -1.714844 "/></g></g></g><g fill="#5ce1e6" fill-opacity="0.302"><g transform="translate(14.085708, 46.895511)"><g><path d="M 12.980469 -4.75 C 12.496094 -4.3125 12.011719 -4.003906 11.503906 -3.804688 C 11 -3.585938 10.40625 -3.496094 9.722656 -3.496094 C 8.996094 -3.496094 8.359375 -3.609375 7.832031 -3.828125 C 7.28125 -4.046875 6.820312 -4.332031 6.46875 -4.730469 C 6.09375 -5.125 5.808594 -5.566406 5.632812 -6.09375 C 5.457031 -6.621094 5.367188 -7.191406 5.367188 -7.808594 C 5.367188 -8.402344 5.457031 -8.976562 5.632812 -9.503906 C 5.808594 -10.03125 6.09375 -10.472656 6.46875 -10.867188 C 6.820312 -11.261719 7.28125 -11.570312 7.832031 -11.789062 C 8.359375 -12.011719 8.996094 -12.121094 9.722656 -12.121094 C 10.25 -12.121094 10.777344 -12.03125 11.308594 -11.878906 C 11.835938 -11.703125 12.320312 -11.4375 12.714844 -11.085938 C 12.757812 -11.042969 12.800781 -11.019531 12.847656 -10.976562 L 12.980469 -10.84375 C 13.132812 -10.691406 13.308594 -10.558594 13.527344 -10.449219 C 13.726562 -10.339844 13.992188 -10.292969 14.320312 -10.292969 C 14.628906 -10.292969 14.890625 -10.339844 15.113281 -10.449219 C 15.332031 -10.558594 15.53125 -10.691406 15.707031 -10.867188 C 15.859375 -11.019531 15.96875 -11.195312 16.058594 -11.417969 C 16.144531 -11.636719 16.191406 -11.835938 16.191406 -12.03125 C 16.191406 -12.449219 16.035156 -12.847656 15.726562 -13.199219 C 15.375 -13.59375 14.957031 -13.945312 14.472656 -14.253906 C 13.992188 -14.5625 13.507812 -14.804688 12.980469 -15.003906 C 12.449219 -15.199219 11.902344 -15.355469 11.351562 -15.441406 C 10.777344 -15.53125 10.25 -15.597656 9.722656 -15.597656 C 8.578125 -15.597656 7.5 -15.398438 6.511719 -15.023438 C 5.519531 -14.648438 4.664062 -14.121094 3.960938 -13.441406 C 3.234375 -12.757812 2.660156 -11.945312 2.265625 -11 C 1.847656 -10.03125 1.648438 -8.976562 1.648438 -7.808594 C 1.648438 -6.621094 1.847656 -5.566406 2.265625 -4.597656 C 2.660156 -3.628906 3.234375 -2.816406 3.960938 -2.132812 C 4.664062 -1.453125 5.519531 -0.925781 6.511719 -0.550781 C 7.5 -0.175781 8.578125 0 9.722656 0 C 10.691406 0 11.613281 -0.132812 12.515625 -0.417969 C 13.417969 -0.703125 14.230469 -1.144531 14.957031 -1.714844 C 15.265625 -1.9375 15.53125 -2.199219 15.792969 -2.484375 C 16.058594 -2.773438 16.191406 -3.125 16.191406 -3.5625 C 16.191406 -3.761719 16.144531 -3.960938 16.058594 -4.179688 C 15.96875 -4.378906 15.859375 -4.554688 15.707031 -4.730469 C 15.53125 -4.882812 15.332031 -5.015625 15.113281 -5.125 C 14.890625 -5.234375 14.628906 -5.300781 14.320312 -5.300781 C 13.992188 -5.300781 13.726562 -5.234375 13.527344 -5.125 C 13.308594 -5.015625 13.132812 -4.882812 12.980469 -4.75 Z M 12.980469 -4.75 "/></g></g></g><g fill="#5ce1e6" fill-opacity="0.302"><g transform="translate(31.946525, 46.895511)"><g><path d="M 10.667969 -14.230469 C 10.535156 -14.585938 10.273438 -14.890625 9.921875 -15.179688 C 9.546875 -15.441406 9.105469 -15.597656 8.601562 -15.597656 C 8.074219 -15.597656 7.632812 -15.441406 7.257812 -15.179688 C 6.886719 -14.914062 6.621094 -14.585938 6.488281 -14.230469 L 1.761719 -2.355469 C 1.671875 -2.15625 1.648438 -1.957031 1.648438 -1.738281 C 1.648438 -1.539062 1.671875 -1.34375 1.761719 -1.144531 C 1.847656 -0.925781 1.957031 -0.746094 2.113281 -0.59375 C 2.265625 -0.417969 2.464844 -0.285156 2.707031 -0.175781 C 2.925781 -0.0664062 3.191406 -0.0234375 3.496094 -0.0234375 C 3.9375 -0.0234375 4.3125 -0.132812 4.621094 -0.375 C 4.90625 -0.59375 5.101562 -0.859375 5.234375 -1.164062 L 6.46875 -4.265625 C 6.488281 -4.3125 6.535156 -4.355469 6.578125 -4.398438 C 6.621094 -4.421875 6.6875 -4.445312 6.730469 -4.445312 L 10.449219 -4.445312 C 10.535156 -4.445312 10.625 -4.378906 10.710938 -4.265625 L 11.921875 -1.164062 C 12.03125 -0.859375 12.230469 -0.59375 12.539062 -0.375 C 12.824219 -0.132812 13.199219 -0.0234375 13.660156 -0.0234375 C 13.96875 -0.0234375 14.230469 -0.0664062 14.453125 -0.175781 C 14.671875 -0.285156 14.871094 -0.417969 15.046875 -0.59375 C 15.199219 -0.746094 15.308594 -0.925781 15.398438 -1.144531 C 15.484375 -1.34375 15.53125 -1.539062 15.53125 -1.738281 C 15.53125 -1.957031 15.484375 -2.179688 15.398438 -2.355469 Z M 8.578125 -9.523438 C 8.621094 -9.394531 8.667969 -9.28125 8.710938 -9.171875 C 8.753906 -9.039062 8.820312 -8.929688 8.863281 -8.800781 C 8.910156 -8.644531 8.976562 -8.511719 9.039062 -8.382812 C 9.085938 -8.25 9.128906 -8.117188 9.171875 -8.007812 C 9.195312 -7.941406 9.21875 -7.898438 9.21875 -7.898438 L 7.898438 -7.898438 C 7.917969 -7.917969 7.941406 -7.941406 7.941406 -7.984375 C 8.027344 -8.25 8.140625 -8.492188 8.25 -8.753906 C 8.335938 -9.019531 8.445312 -9.261719 8.578125 -9.523438 Z M 8.578125 -9.523438 "/></g></g></g><g fill="#5ce1e6" fill-opacity="0.302"><g transform="translate(49.103472, 46.895511)"><g><path d="M 3.476562 -15.550781 C 3.167969 -15.550781 2.882812 -15.484375 2.660156 -15.375 C 2.441406 -15.265625 2.242188 -15.132812 2.089844 -14.957031 C 1.914062 -14.78125 1.804688 -14.605469 1.714844 -14.410156 C 1.628906 -14.1875 1.605469 -13.992188 1.605469 -13.8125 C 1.605469 -13.59375 1.648438 -13.375 1.738281 -13.175781 C 1.824219 -12.980469 1.9375 -12.800781 2.113281 -12.648438 C 2.265625 -12.472656 2.464844 -12.339844 2.707031 -12.253906 C 2.925781 -12.164062 3.191406 -12.121094 3.496094 -12.121094 L 6.050781 -12.121094 C 6.09375 -12.121094 6.160156 -12.078125 6.226562 -12.03125 C 6.292969 -11.964844 6.335938 -11.878906 6.335938 -11.769531 L 6.335938 -1.738281 C 6.335938 -1.539062 6.355469 -1.34375 6.445312 -1.144531 C 6.535156 -0.925781 6.644531 -0.746094 6.796875 -0.570312 C 6.953125 -0.394531 7.148438 -0.242188 7.371094 -0.132812 C 7.589844 -0.0234375 7.875 0.0234375 8.183594 0.0234375 C 8.492188 0.0234375 8.753906 -0.0234375 8.996094 -0.132812 C 9.21875 -0.242188 9.414062 -0.375 9.570312 -0.550781 C 9.722656 -0.726562 9.832031 -0.902344 9.921875 -1.121094 C 9.988281 -1.320312 10.03125 -1.519531 10.03125 -1.714844 L 10.03125 -11.746094 C 10.03125 -11.855469 10.054688 -11.945312 10.140625 -12.011719 C 10.207031 -12.054688 10.273438 -12.097656 10.316406 -12.097656 L 12.867188 -12.097656 C 13.175781 -12.097656 13.441406 -12.144531 13.683594 -12.253906 C 13.902344 -12.363281 14.101562 -12.496094 14.253906 -12.671875 C 14.410156 -12.824219 14.519531 -13 14.605469 -13.21875 C 14.671875 -13.441406 14.714844 -13.636719 14.714844 -13.835938 C 14.714844 -14.011719 14.671875 -14.210938 14.585938 -14.429688 C 14.496094 -14.628906 14.386719 -14.804688 14.230469 -14.980469 C 14.054688 -15.132812 13.859375 -15.265625 13.636719 -15.375 C 13.417969 -15.484375 13.15625 -15.550781 12.847656 -15.550781 Z M 3.476562 -15.550781 "/></g></g></g><g fill="#5ce1e6" fill-opacity="0.302"><g transform="translate(65.512548, 46.895511)"><g><path d="M 3.496094 0 L 9.722656 0 C 10.03125 0 10.292969 -0.0429688 10.535156 -0.152344 C 10.757812 -0.265625 10.953125 -0.394531 11.109375 -0.570312 C 11.261719 -0.746094 11.371094 -0.925781 11.460938 -1.144531 C 11.527344 -1.34375 11.570312 -1.539062 11.570312 -1.738281 C 11.570312 -1.9375 11.527344 -2.132812 11.4375 -2.355469 C 11.351562 -2.550781 11.242188 -2.726562 11.085938 -2.902344 C 10.910156 -3.058594 10.710938 -3.191406 10.492188 -3.300781 C 10.273438 -3.410156 10.007812 -3.476562 9.699219 -3.476562 L 5.609375 -3.476562 C 5.566406 -3.476562 5.5 -3.496094 5.433594 -3.542969 C 5.34375 -3.585938 5.324219 -3.671875 5.324219 -3.804688 L 5.324219 -6.09375 C 5.324219 -6.203125 5.34375 -6.292969 5.433594 -6.355469 C 5.5 -6.402344 5.566406 -6.445312 5.609375 -6.445312 L 8.558594 -6.445312 C 8.863281 -6.445312 9.128906 -6.488281 9.347656 -6.597656 C 9.570312 -6.710938 9.765625 -6.839844 9.921875 -7.015625 C 10.074219 -7.191406 10.183594 -7.371094 10.273438 -7.589844 C 10.359375 -7.789062 10.40625 -7.984375 10.40625 -8.183594 C 10.40625 -8.382812 10.359375 -8.578125 10.273438 -8.800781 C 10.183594 -8.996094 10.074219 -9.171875 9.921875 -9.347656 C 9.746094 -9.503906 9.546875 -9.636719 9.328125 -9.746094 C 9.105469 -9.855469 8.84375 -9.921875 8.535156 -9.921875 L 5.585938 -9.921875 C 5.542969 -9.921875 5.476562 -9.941406 5.410156 -9.988281 C 5.324219 -10.03125 5.300781 -10.117188 5.300781 -10.25 L 5.300781 -11.769531 C 5.300781 -11.878906 5.324219 -11.964844 5.410156 -12.03125 C 5.476562 -12.078125 5.542969 -12.121094 5.585938 -12.121094 L 9.679688 -12.121094 C 9.988281 -12.121094 10.25 -12.164062 10.492188 -12.273438 C 10.710938 -12.382812 10.910156 -12.515625 11.066406 -12.691406 C 11.21875 -12.847656 11.328125 -13.023438 11.417969 -13.242188 C 11.484375 -13.441406 11.527344 -13.636719 11.527344 -13.835938 C 11.527344 -14.035156 11.484375 -14.230469 11.394531 -14.453125 C 11.308594 -14.648438 11.195312 -14.828125 11.042969 -15.003906 C 10.867188 -15.15625 10.667969 -15.289062 10.449219 -15.398438 C 10.230469 -15.507812 9.964844 -15.574219 9.65625 -15.574219 L 3.429688 -15.574219 C 3.125 -15.574219 2.835938 -15.507812 2.617188 -15.398438 C 2.398438 -15.289062 2.199219 -15.15625 2.046875 -14.980469 C 1.871094 -14.804688 1.761719 -14.628906 1.671875 -14.429688 C 1.582031 -14.210938 1.5625 -14.011719 1.5625 -13.835938 L 1.5625 -1.714844 C 1.5625 -1.496094 1.605469 -1.277344 1.695312 -1.078125 C 1.78125 -0.859375 1.914062 -0.683594 2.089844 -0.527344 C 2.265625 -0.351562 2.464844 -0.21875 2.707031 -0.132812 C 2.949219 -0.0429688 3.210938 0 3.496094 0 Z M 3.496094 0 "/></g></g></g><g fill="#5ce1e6" fill-opacity="0.502"><g transform="translate(13.251838, 47.072756)"><g><path d="M 12.980469 -4.75 C 12.496094 -4.3125 12.011719 -4.003906 11.503906 -3.804688 C 11 -3.585938 10.40625 -3.496094 9.722656 -3.496094 C 8.996094 -3.496094 8.359375 -3.609375 7.832031 -3.828125 C 7.28125 -4.046875 6.820312 -4.332031 6.46875 -4.730469 C 6.09375 -5.125 5.808594 -5.566406 5.632812 -6.09375 C 5.457031 -6.621094 5.367188 -7.191406 5.367188 -7.808594 C 5.367188 -8.402344 5.457031 -8.976562 5.632812 -9.503906 C 5.808594 -10.03125 6.09375 -10.472656 6.46875 -10.867188 C 6.820312 -11.261719 7.28125 -11.570312 7.832031 -11.789062 C 8.359375 -12.011719 8.996094 -12.121094 9.722656 -12.121094 C 10.25 -12.121094 10.777344 -12.03125 11.308594 -11.878906 C 11.835938 -11.703125 12.320312 -11.4375 12.714844 -11.085938 C 12.757812 -11.042969 12.800781 -11.019531 12.847656 -10.976562 L 12.980469 -10.84375 C 13.132812 -10.691406 13.308594 -10.558594 13.527344 -10.449219 C 13.726562 -10.339844 13.992188 -10.292969 14.320312 -10.292969 C 14.628906 -10.292969 14.890625 -10.339844 15.113281 -10.449219 C 15.332031 -10.558594 15.53125 -10.691406 15.707031 -10.867188 C 15.859375 -11.019531 15.96875 -11.195312 16.058594 -11.417969 C 16.144531 -11.636719 16.191406 -11.835938 16.191406 -12.03125 C 16.191406 -12.449219 16.035156 -12.847656 15.726562 -13.199219 C 15.375 -13.59375 14.957031 -13.945312 14.472656 -14.253906 C 13.992188 -14.5625 13.507812 -14.804688 12.980469 -15.003906 C 12.449219 -15.199219 11.902344 -15.355469 11.351562 -15.441406 C 10.777344 -15.53125 10.25 -15.597656 9.722656 -15.597656 C 8.578125 -15.597656 7.5 -15.398438 6.511719 -15.023438 C 5.519531 -14.648438 4.664062 -14.121094 3.960938 -13.441406 C 3.234375 -12.757812 2.660156 -11.945312 2.265625 -11 C 1.847656 -10.03125 1.648438 -8.976562 1.648438 -7.808594 C 1.648438 -6.621094 1.847656 -5.566406 2.265625 -4.597656 C 2.660156 -3.628906 3.234375 -2.816406 3.960938 -2.132812 C 4.664062 -1.453125 5.519531 -0.925781 6.511719 -0.550781 C 7.5 -0.175781 8.578125 0 9.722656 0 C 10.691406 0 11.613281 -0.132812 12.515625 -0.417969 C 13.417969 -0.703125 14.230469 -1.144531 14.957031 -1.714844 C 15.265625 -1.9375 15.53125 -2.199219 15.792969 -2.484375 C 16.058594 -2.773438 16.191406 -3.125 16.191406 -3.5625 C 16.191406 -3.761719 16.144531 -3.960938 16.058594 -4.179688 C 15.96875 -4.378906 15.859375 -4.554688 15.707031 -4.730469 C 15.53125 -4.882812 15.332031 -5.015625 15.113281 -5.125 C 14.890625 -5.234375 14.628906 -5.300781 14.320312 -5.300781 C 13.992188 -5.300781 13.726562 -5.234375 13.527344 -5.125 C 13.308594 -5.015625 13.132812 -4.882812 12.980469 -4.75 Z M 12.980469 -4.75 "/></g></g></g><g fill="#5ce1e6" fill-opacity="0.502"><g transform="translate(31.112655, 47.072756)"><g><path d="M 10.667969 -14.230469 C 10.535156 -14.585938 10.273438 -14.890625 9.921875 -15.179688 C 9.546875 -15.441406 9.105469 -15.597656 8.601562 -15.597656 C 8.074219 -15.597656 7.632812 -15.441406 7.257812 -15.179688 C 6.886719 -14.914062 6.621094 -14.585938 6.488281 -14.230469 L 1.761719 -2.355469 C 1.671875 -2.15625 1.648438 -1.957031 1.648438 -1.738281 C 1.648438 -1.539062 1.671875 -1.34375 1.761719 -1.144531 C 1.847656 -0.925781 1.957031 -0.746094 2.113281 -0.59375 C 2.265625 -0.417969 2.464844 -0.285156 2.707031 -0.175781 C 2.925781 -0.0664062 3.191406 -0.0234375 3.496094 -0.0234375 C 3.9375 -0.0234375 4.3125 -0.132812 4.621094 -0.375 C 4.90625 -0.59375 5.101562 -0.859375 5.234375 -1.164062 L 6.46875 -4.265625 C 6.488281 -4.3125 6.535156 -4.355469 6.578125 -4.398438 C 6.621094 -4.421875 6.6875 -4.445312 6.730469 -4.445312 L 10.449219 -4.445312 C 10.535156 -4.445312 10.625 -4.378906 10.710938 -4.265625 L 11.921875 -1.164062 C 12.03125 -0.859375 12.230469 -0.59375 12.539062 -0.375 C 12.824219 -0.132812 13.199219 -0.0234375 13.660156 -0.0234375 C 13.96875 -0.0234375 14.230469 -0.0664062 14.453125 -0.175781 C 14.671875 -0.285156 14.871094 -0.417969 15.046875 -0.59375 C 15.199219 -0.746094 15.308594 -0.925781 15.398438 -1.144531 C 15.484375 -1.34375 15.53125 -1.539062 15.53125 -1.738281 C 15.53125 -1.957031 15.484375 -2.179688 15.398438 -2.355469 Z M 8.578125 -9.523438 C 8.621094 -9.394531 8.667969 -9.28125 8.710938 -9.171875 C 8.753906 -9.039062 8.820312 -8.929688 8.863281 -8.800781 C 8.910156 -8.644531 8.976562 -8.511719 9.039062 -8.382812 C 9.085938 -8.25 9.128906 -8.117188 9.171875 -8.007812 C 9.195312 -7.941406 9.21875 -7.898438 9.21875 -7.898438 L 7.898438 -7.898438 C 7.917969 -7.917969 7.941406 -7.941406 7.941406 -7.984375 C 8.027344 -8.25 8.140625 -8.492188 8.25 -8.753906 C 8.335938 -9.019531 8.445312 -9.261719 8.578125 -9.523438 Z M 8.578125 -9.523438 "/></g></g></g><g fill="#5ce1e6" fill-opacity="0.502"><g transform="translate(48.269602, 47.072756)"><g><path d="M 3.476562 -15.550781 C 3.167969 -15.550781 2.882812 -15.484375 2.660156 -15.375 C 2.441406 -15.265625 2.242188 -15.132812 2.089844 -14.957031 C 1.914062 -14.78125 1.804688 -14.605469 1.714844 -14.410156 C 1.628906 -14.1875 1.605469 -13.992188 1.605469 -13.8125 C 1.605469 -13.59375 1.648438 -13.375 1.738281 -13.175781 C 1.824219 -12.980469 1.9375 -12.800781 2.113281 -12.648438 C 2.265625 -12.472656 2.464844 -12.339844 2.707031 -12.253906 C 2.925781 -12.164062 3.191406 -12.121094 3.496094 -12.121094 L 6.050781 -12.121094 C 6.09375 -12.121094 6.160156 -12.078125 6.226562 -12.03125 C 6.292969 -11.964844 6.335938 -11.878906 6.335938 -11.769531 L 6.335938 -1.738281 C 6.335938 -1.539062 6.355469 -1.34375 6.445312 -1.144531 C 6.535156 -0.925781 6.644531 -0.746094 6.796875 -0.570312 C 6.953125 -0.394531 7.148438 -0.242188 7.371094 -0.132812 C 7.589844 -0.0234375 7.875 0.0234375 8.183594 0.0234375 C 8.492188 0.0234375 8.753906 -0.0234375 8.996094 -0.132812 C 9.21875 -0.242188 9.414062 -0.375 9.570312 -0.550781 C 9.722656 -0.726562 9.832031 -0.902344 9.921875 -1.121094 C 9.988281 -1.320312 10.03125 -1.519531 10.03125 -1.714844 L 10.03125 -11.746094 C 10.03125 -11.855469 10.054688 -11.945312 10.140625 -12.011719 C 10.207031 -12.054688 10.273438 -12.097656 10.316406 -12.097656 L 12.867188 -12.097656 C 13.175781 -12.097656 13.441406 -12.144531 13.683594 -12.253906 C 13.902344 -12.363281 14.101562 -12.496094 14.253906 -12.671875 C 14.410156 -12.824219 14.519531 -13 14.605469 -13.21875 C 14.671875 -13.441406 14.714844 -13.636719 14.714844 -13.835938 C 14.714844 -14.011719 14.671875 -14.210938 14.585938 -14.429688 C 14.496094 -14.628906 14.386719 -14.804688 14.230469 -14.980469 C 14.054688 -15.132812 13.859375 -15.265625 13.636719 -15.375 C 13.417969 -15.484375 13.15625 -15.550781 12.847656 -15.550781 Z M 3.476562 -15.550781 "/></g></g></g><g fill="#5ce1e6" fill-opacity="0.502"><g transform="translate(64.678678, 47.072756)"><g><path d="M 3.496094 0 L 9.722656 0 C 10.03125 0 10.292969 -0.0429688 10.535156 -0.152344 C 10.757812 -0.265625 10.953125 -0.394531 11.109375 -0.570312 C 11.261719 -0.746094 11.371094 -0.925781 11.460938 -1.144531 C 11.527344 -1.34375 11.570312 -1.539062 11.570312 -1.738281 C 11.570312 -1.9375 11.527344 -2.132812 11.4375 -2.355469 C 11.351562 -2.550781 11.242188 -2.726562 11.085938 -2.902344 C 10.910156 -3.058594 10.710938 -3.191406 10.492188 -3.300781 C 10.273438 -3.410156 10.007812 -3.476562 9.699219 -3.476562 L 5.609375 -3.476562 C 5.566406 -3.476562 5.5 -3.496094 5.433594 -3.542969 C 5.34375 -3.585938 5.324219 -3.671875 5.324219 -3.804688 L 5.324219 -6.09375 C 5.324219 -6.203125 5.34375 -6.292969 5.433594 -6.355469 C 5.5 -6.402344 5.566406 -6.445312 5.609375 -6.445312 L 8.558594 -6.445312 C 8.863281 -6.445312 9.128906 -6.488281 9.347656 -6.597656 C 9.570312 -6.710938 9.765625 -6.839844 9.921875 -7.015625 C 10.074219 -7.191406 10.183594 -7.371094 10.273438 -7.589844 C 10.359375 -7.789062 10.40625 -7.984375 10.40625 -8.183594 C 10.40625 -8.382812 10.359375 -8.578125 10.273438 -8.800781 C 10.183594 -8.996094 10.074219 -9.171875 9.921875 -9.347656 C 9.746094 -9.503906 9.546875 -9.636719 9.328125 -9.746094 C 9.105469 -9.855469 8.84375 -9.921875 8.535156 -9.921875 L 5.585938 -9.921875 C 5.542969 -9.921875 5.476562 -9.941406 5.410156 -9.988281 C 5.324219 -10.03125 5.300781 -10.117188 5.300781 -10.25 L 5.300781 -11.769531 C 5.300781 -11.878906 5.324219 -11.964844 5.410156 -12.03125 C 5.476562 -12.078125 5.542969 -12.121094 5.585938 -12.121094 L 9.679688 -12.121094 C 9.988281 -12.121094 10.25 -12.164062 10.492188 -12.273438 C 10.710938 -12.382812 10.910156 -12.515625 11.066406 -12.691406 C 11.21875 -12.847656 11.328125 -13.023438 11.417969 -13.242188 C 11.484375 -13.441406 11.527344 -13.636719 11.527344 -13.835938 C 11.527344 -14.035156 11.484375 -14.230469 11.394531 -14.453125 C 11.308594 -14.648438 11.195312 -14.828125 11.042969 -15.003906 C 10.867188 -15.15625 10.667969 -15.289062 10.449219 -15.398438 C 10.230469 -15.507812 9.964844 -15.574219 9.65625 -15.574219 L 3.429688 -15.574219 C 3.125 -15.574219 2.835938 -15.507812 2.617188 -15.398438 C 2.398438 -15.289062 2.199219 -15.15625 2.046875 -14.980469 C 1.871094 -14.804688 1.761719 -14.628906 1.671875 -14.429688 C 1.582031 -14.210938 1.5625 -14.011719 1.5625 -13.835938 L 1.5625 -1.714844 C 1.5625 -1.496094 1.605469 -1.277344 1.695312 -1.078125 C 1.78125 -0.859375 1.914062 -0.683594 2.089844 -0.527344 C 2.265625 -0.351562 2.464844 -0.21875 2.707031 -0.132812 C 2.949219 -0.0429688 3.210938 0 3.496094 0 Z M 3.496094 0 "/></g></g></g><g fill="#63b3ed" fill-opacity="1"><g transform="translate(12.417968, 47.25)"><g><path d="M 12.980469 -4.75 C 12.496094 -4.3125 12.011719 -4.003906 11.503906 -3.804688 C 11 -3.585938 10.40625 -3.496094 9.722656 -3.496094 C 8.996094 -3.496094 8.359375 -3.609375 7.832031 -3.828125 C 7.28125 -4.046875 6.820312 -4.332031 6.46875 -4.730469 C 6.09375 -5.125 5.808594 -5.566406 5.632812 -6.09375 C 5.457031 -6.621094 5.367188 -7.191406 5.367188 -7.808594 C 5.367188 -8.402344 5.457031 -8.976562 5.632812 -9.503906 C 5.808594 -10.03125 6.09375 -10.472656 6.46875 -10.867188 C 6.820312 -11.261719 7.28125 -11.570312 7.832031 -11.789062 C 8.359375 -12.011719 8.996094 -12.121094 9.722656 -12.121094 C 10.25 -12.121094 10.777344 -12.03125 11.308594 -11.878906 C 11.835938 -11.703125 12.320312 -11.4375 12.714844 -11.085938 C 12.757812 -11.042969 12.800781 -11.019531 12.847656 -10.976562 L 12.980469 -10.84375 C 13.132812 -10.691406 13.308594 -10.558594 13.527344 -10.449219 C 13.726562 -10.339844 13.992188 -10.292969 14.320312 -10.292969 C 14.628906 -10.292969 14.890625 -10.339844 15.113281 -10.449219 C 15.332031 -10.558594 15.53125 -10.691406 15.707031 -10.867188 C 15.859375 -11.019531 15.96875 -11.195312 16.058594 -11.417969 C 16.144531 -11.636719 16.191406 -11.835938 16.191406 -12.03125 C 16.191406 -12.449219 16.035156 -12.847656 15.726562 -13.199219 C 15.375 -13.59375 14.957031 -13.945312 14.472656 -14.253906 C 13.992188 -14.5625 13.507812 -14.804688 12.980469 -15.003906 C 12.449219 -15.199219 11.902344 -15.355469 11.351562 -15.441406 C 10.777344 -15.53125 10.25 -15.597656 9.722656 -15.597656 C 8.578125 -15.597656 7.5 -15.398438 6.511719 -15.023438 C 5.519531 -14.648438 4.664062 -14.121094 3.960938 -13.441406 C 3.234375 -12.757812 2.660156 -11.945312 2.265625 -11 C 1.847656 -10.03125 1.648438 -8.976562 1.648438 -7.808594 C 1.648438 -6.621094 1.847656 -5.566406 2.265625 -4.597656 C 2.660156 -3.628906 3.234375 -2.816406 3.960938 -2.132812 C 4.664062 -1.453125 5.519531 -0.925781 6.511719 -0.550781 C 7.5 -0.175781 8.578125 0 9.722656 0 C 10.691406 0 11.613281 -0.132812 12.515625 -0.417969 C 13.417969 -0.703125 14.230469 -1.144531 14.957031 -1.714844 C 15.265625 -1.9375 15.53125 -2.199219 15.792969 -2.484375 C 16.058594 -2.773438 16.191406 -3.125 16.191406 -3.5625 C 16.191406 -3.761719 16.144531 -3.960938 16.058594 -4.179688 C 15.96875 -4.378906 15.859375 -4.554688 15.707031 -4.730469 C 15.53125 -4.882812 15.332031 -5.015625 15.113281 -5.125 C 14.890625 -5.234375 14.628906 -5.300781 14.320312 -5.300781 C 13.992188 -5.300781 13.726562 -5.234375 13.527344 -5.125 C 13.308594 -5.015625 13.132812 -4.882812 12.980469 -4.75 Z M 12.980469 -4.75 "/></g></g></g><g fill="#63b3ed" fill-opacity="1"><g transform="translate(30.278785, 47.25)"><g><path d="M 10.667969 -14.230469 C 10.535156 -14.585938 10.273438 -14.890625 9.921875 -15.179688 C 9.546875 -15.441406 9.105469 -15.597656 8.601562 -15.597656 C 8.074219 -15.597656 7.632812 -15.441406 7.257812 -15.179688 C 6.886719 -14.914062 6.621094 -14.585938 6.488281 -14.230469 L 1.761719 -2.355469 C 1.671875 -2.15625 1.648438 -1.957031 1.648438 -1.738281 C 1.648438 -1.539062 1.671875 -1.34375 1.761719 -1.144531 C 1.847656 -0.925781 1.957031 -0.746094 2.113281 -0.59375 C 2.265625 -0.417969 2.464844 -0.285156 2.707031 -0.175781 C 2.925781 -0.0664062 3.191406 -0.0234375 3.496094 -0.0234375 C 3.9375 -0.0234375 4.3125 -0.132812 4.621094 -0.375 C 4.90625 -0.59375 5.101562 -0.859375 5.234375 -1.164062 L 6.46875 -4.265625 C 6.488281 -4.3125 6.535156 -4.355469 6.578125 -4.398438 C 6.621094 -4.421875 6.6875 -4.445312 6.730469 -4.445312 L 10.449219 -4.445312 C 10.535156 -4.445312 10.625 -4.378906 10.710938 -4.265625 L 11.921875 -1.164062 C 12.03125 -0.859375 12.230469 -0.59375 12.539062 -0.375 C 12.824219 -0.132812 13.199219 -0.0234375 13.660156 -0.0234375 C 13.96875 -0.0234375 14.230469 -0.0664062 14.453125 -0.175781 C 14.671875 -0.285156 14.871094 -0.417969 15.046875 -0.59375 C 15.199219 -0.746094 15.308594 -0.925781 15.398438 -1.144531 C 15.484375 -1.34375 15.53125 -1.539062 15.53125 -1.738281 C 15.53125 -1.957031 15.484375 -2.179688 15.398438 -2.355469 Z M 8.578125 -9.523438 C 8.621094 -9.394531 8.667969 -9.28125 8.710938 -9.171875 C 8.753906 -9.039062 8.820312 -8.929688 8.863281 -8.800781 C 8.910156 -8.644531 8.976562 -8.511719 9.039062 -8.382812 C 9.085938 -8.25 9.128906 -8.117188 9.171875 -8.007812 C 9.195312 -7.941406 9.21875 -7.898438 9.21875 -7.898438 L 7.898438 -7.898438 C 7.917969 -7.917969 7.941406 -7.941406 7.941406 -7.984375 C 8.027344 -8.25 8.140625 -8.492188 8.25 -8.753906 C 8.335938 -9.019531 8.445312 -9.261719 8.578125 -9.523438 Z M 8.578125 -9.523438 "/></g></g></g><g fill="#63b3ed" fill-opacity="1"><g transform="translate(47.435732, 47.25)"><g><path d="M 3.476562 -15.550781 C 3.167969 -15.550781 2.882812 -15.484375 2.660156 -15.375 C 2.441406 -15.265625 2.242188 -15.132812 2.089844 -14.957031 C 1.914062 -14.78125 1.804688 -14.605469 1.714844 -14.410156 C 1.628906 -14.1875 1.605469 -13.992188 1.605469 -13.8125 C 1.605469 -13.59375 1.648438 -13.375 1.738281 -13.175781 C 1.824219 -12.980469 1.9375 -12.800781 2.113281 -12.648438 C 2.265625 -12.472656 2.464844 -12.339844 2.707031 -12.253906 C 2.925781 -12.164062 3.191406 -12.121094 3.496094 -12.121094 L 6.050781 -12.121094 C 6.09375 -12.121094 6.160156 -12.078125 6.226562 -12.03125 C 6.292969 -11.964844 6.335938 -11.878906 6.335938 -11.769531 L 6.335938 -1.738281 C 6.335938 -1.539062 6.355469 -1.34375 6.445312 -1.144531 C 6.535156 -0.925781 6.644531 -0.746094 6.796875 -0.570312 C 6.953125 -0.394531 7.148438 -0.242188 7.371094 -0.132812 C 7.589844 -0.0234375 7.875 0.0234375 8.183594 0.0234375 C 8.492188 0.0234375 8.753906 -0.0234375 8.996094 -0.132812 C 9.21875 -0.242188 9.414062 -0.375 9.570312 -0.550781 C 9.722656 -0.726562 9.832031 -0.902344 9.921875 -1.121094 C 9.988281 -1.320312 10.03125 -1.519531 10.03125 -1.714844 L 10.03125 -11.746094 C 10.03125 -11.855469 10.054688 -11.945312 10.140625 -12.011719 C 10.207031 -12.054688 10.273438 -12.097656 10.316406 -12.097656 L 12.867188 -12.097656 C 13.175781 -12.097656 13.441406 -12.144531 13.683594 -12.253906 C 13.902344 -12.363281 14.101562 -12.496094 14.253906 -12.671875 C 14.410156 -12.824219 14.519531 -13 14.605469 -13.21875 C 14.671875 -13.441406 14.714844 -13.636719 14.714844 -13.835938 C 14.714844 -14.011719 14.671875 -14.210938 14.585938 -14.429688 C 14.496094 -14.628906 14.386719 -14.804688 14.230469 -14.980469 C 14.054688 -15.132812 13.859375 -15.265625 13.636719 -15.375 C 13.417969 -15.484375 13.15625 -15.550781 12.847656 -15.550781 Z M 3.476562 -15.550781 "/></g></g></g><g fill="#63b3ed" fill-opacity="1"><g transform="translate(63.844808, 47.25)"><g><path d="M 3.496094 0 L 9.722656 0 C 10.03125 0 10.292969 -0.0429688 10.535156 -0.152344 C 10.757812 -0.265625 10.953125 -0.394531 11.109375 -0.570312 C 11.261719 -0.746094 11.371094 -0.925781 11.460938 -1.144531 C 11.527344 -1.34375 11.570312 -1.539062 11.570312 -1.738281 C 11.570312 -1.9375 11.527344 -2.132812 11.4375 -2.355469 C 11.351562 -2.550781 11.242188 -2.726562 11.085938 -2.902344 C 10.910156 -3.058594 10.710938 -3.191406 10.492188 -3.300781 C 10.273438 -3.410156 10.007812 -3.476562 9.699219 -3.476562 L 5.609375 -3.476562 C 5.566406 -3.476562 5.5 -3.496094 5.433594 -3.542969 C 5.34375 -3.585938 5.324219 -3.671875 5.324219 -3.804688 L 5.324219 -6.09375 C 5.324219 -6.203125 5.34375 -6.292969 5.433594 -6.355469 C 5.5 -6.402344 5.566406 -6.445312 5.609375 -6.445312 L 8.558594 -6.445312 C 8.863281 -6.445312 9.128906 -6.488281 9.347656 -6.597656 C 9.570312 -6.710938 9.765625 -6.839844 9.921875 -7.015625 C 10.074219 -7.191406 10.183594 -7.371094 10.273438 -7.589844 C 10.359375 -7.789062 10.40625 -7.984375 10.40625 -8.183594 C 10.40625 -8.382812 10.359375 -8.578125 10.273438 -8.800781 C 10.183594 -8.996094 10.074219 -9.171875 9.921875 -9.347656 C 9.746094 -9.503906 9.546875 -9.636719 9.328125 -9.746094 C 9.105469 -9.855469 8.84375 -9.921875 8.535156 -9.921875 L 5.585938 -9.921875 C 5.542969 -9.921875 5.476562 -9.941406 5.410156 -9.988281 C 5.324219 -10.03125 5.300781 -10.117188 5.300781 -10.25 L 5.300781 -11.769531 C 5.300781 -11.878906 5.324219 -11.964844 5.410156 -12.03125 C 5.476562 -12.078125 5.542969 -12.121094 5.585938 -12.121094 L 9.679688 -12.121094 C 9.988281 -12.121094 10.25 -12.164062 10.492188 -12.273438 C 10.710938 -12.382812 10.910156 -12.515625 11.066406 -12.691406 C 11.21875 -12.847656 11.328125 -13.023438 11.417969 -13.242188 C 11.484375 -13.441406 11.527344 -13.636719 11.527344 -13.835938 C 11.527344 -14.035156 11.484375 -14.230469 11.394531 -14.453125 C 11.308594 -14.648438 11.195312 -14.828125 11.042969 -15.003906 C 10.867188 -15.15625 10.667969 -15.289062 10.449219 -15.398438 C 10.230469 -15.507812 9.964844 -15.574219 9.65625 -15.574219 L 3.429688 -15.574219 C 3.125 -15.574219 2.835938 -15.507812 2.617188 -15.398438 C 2.398438 -15.289062 2.199219 -15.15625 2.046875 -14.980469 C 1.871094 -14.804688 1.761719 -14.628906 1.671875 -14.429688 C 1.582031 -14.210938 1.5625 -14.011719 1.5625 -13.835938 L 1.5625 -1.714844 C 1.5625 -1.496094 1.605469 -1.277344 1.695312 -1.078125 C 1.78125 -0.859375 1.914062 -0.683594 2.089844 -0.527344 C 2.265625 -0.351562 2.464844 -0.21875 2.707031 -0.132812 C 2.949219 -0.0429688 3.210938 0 3.496094 0 Z M 3.496094 0 "/></g></g></g></svg>